<?xml version="1.0" encoding="UTF-8" standalone="no"?>
<!DOCTYPE svg PUBLIC "-//W3C//DTD SVG 1.1//EN" "http://www.w3.org/Graphics/SVG/1.1/DTD/svg11.dtd">
<svg version="1.1" xmlns="http://www.w3.org/2000/svg" xmlns:xlink="http://www.w3.org/1999/xlink" preserveAspectRatio="xMidYMid meet" viewBox="-25 277.61 712 225.39" width="1200" height="375.24"><defs><path d="M640 278.61C640 411.45 640 485.24 640 500C640 500 640 500 640 500C256 500 42.67 500 0 500C0 500 0 500 0 500C0 367.17 0 293.37 0 278.61C0 278.61 0 278.61 0 278.61C384 278.61 597.33 278.61 640 278.61C640 278.61 640 278.61 640 278.61Z" id="f6XmE7uR5T"></path><path d="M640 278.61C640 411.45 640 485.24 640 500C640 500 640 500 640 500C256 500 42.67 500 0 500C0 500 0 500 0 500C0 367.17 0 293.37 0 278.61C0 278.61 0 278.61 0 278.61C384 278.61 597.33 278.61 640 278.61C640 278.61 640 278.61 640 278.61Z" id="e1BapMRINR"></path><path d="M558.4 500L382.8 320L215.6 500L558.4 500Z" id="d7bdgcj5YG"></path><path d="M558.4 500L382.8 320L215.6 500L558.4 500Z" id="afifpe4A0"></path><path d="M558.4 500L382.8 320L349.16 500L558.4 500Z" id="a1aee99ZUD"></path><path d="M558.4 500L382.8 320L349.16 500L558.4 500Z" id="a3PNkd03G"></path><path d="M326.4 500L-24 500L159.2 404.8L326.4 500Z" id="b1B991XQ9s"></path><path d="M326.4 500L-24 500L159.2 404.8L326.4 500Z" id="n3TPHkGEO"></path><path d="M326.4 500L134.8 500L159.2 404.8L326.4 500Z" id="apwfM4ger"></path><path d="M326.4 500L134.8 500L159.2 404.8L326.4 500Z" id="a1pFchns9k"></path><path d="M350.4 500L481.2 358.4L620.8 500L350.4 500Z" id="c1xpnq6iCb"></path><path d="M350.4 500L481.2 358.4L620.8 500L350.4 500Z" id="d2e3kvTqfl"></path><path d="M464.8 500L481.2 358.4L620.8 500L464.8 500Z" id="a18m04E0f8"></path><path d="M464.8 500L481.2 358.4L620.8 500L464.8 500Z" id="a2FV5CvKkv"></path><path d="M146.8 500L256.4 418L354.4 500L146.8 500Z" id="h4sd8n7MS"></path><path d="M146.8 500L256.4 418L354.4 500L146.8 500Z" id="a6d0dVHLjm"></path><path d="M354.4 500L234.8 500L256.4 418L354.4 500Z" id="cUXyItLOd"></path><path d="M354.4 500L234.8 500L256.4 418L354.4 500Z" id="a8KLn58fi"></path><path d="M438.4 500L684 500L560.4 392.8L438.4 500Z" id="a63Fw1HmPG"></path><path d="M438.4 500L684 500L560.4 392.8L438.4 500Z" id="a37K6eQ4Z"></path><path d="M546 500L684 500L560.4 392.8L546 500Z" id="c8xlHvbKAo"></path><path d="M546 500L684 500L560.4 392.8L546 500Z" id="b1ezxdogdA"></path><path d="M290 500L484 500L388.4 414.8L290 500Z" id="e1r7eTAmEL"></path><path d="M290 500L484 500L388.4 414.8L290 500Z" id="d3e8Jqz57"></path><path d="M388.4 414.8L377.2 500L484 500L388.4 414.8Z" id="bbdzIifcr"></path><path d="M388.4 414.8L377.2 500L484 500L388.4 414.8Z" id="fJquwm5o4"></path></defs><g><g><use xlink:href="#f6XmE7uR5T" opacity="0" fill="#ebede2" fill-opacity="1"></use><g><use xlink:href="#f6XmE7uR5T" opacity="1" fill-opacity="0" stroke="#000000" stroke-width="1" stroke-opacity="0"></use></g></g><g><use xlink:href="#e1BapMRINR" opacity="1" fill="#000000" fill-opacity="0"></use><g><use xlink:href="#e1BapMRINR" opacity="1" fill-opacity="0" stroke="#000000" stroke-width="1" stroke-opacity="0"></use></g></g><g><use xlink:href="#d7bdgcj5YG" opacity="1" fill="#ccc620" fill-opacity="1"></use><g><use xlink:href="#d7bdgcj5YG" opacity="1" fill-opacity="0" stroke="#000000" stroke-width="1" stroke-opacity="0"></use></g></g><g><use xlink:href="#afifpe4A0" opacity="1" fill="#000000" fill-opacity="0"></use><g><use xlink:href="#afifpe4A0" opacity="1" fill-opacity="0" stroke="#000000" stroke-width="1" stroke-opacity="0"></use></g></g><g><use xlink:href="#a1aee99ZUD" opacity="1" fill="#aa5f0f" fill-opacity="1"></use><g><use xlink:href="#a1aee99ZUD" opacity="1" fill-opacity="0" stroke="#000000" stroke-width="1" stroke-opacity="0"></use></g></g><g><use xlink:href="#a3PNkd03G" opacity="1" fill="#000000" fill-opacity="0"></use><g><use xlink:href="#a3PNkd03G" opacity="1" fill-opacity="0" stroke="#000000" stroke-width="1" stroke-opacity="0"></use></g></g><g><use xlink:href="#b1B991XQ9s" opacity="1" fill="#c4c11e" fill-opacity="1"></use><g><use xlink:href="#b1B991XQ9s" opacity="1" fill-opacity="0" stroke="#000000" stroke-width="1" stroke-opacity="0"></use></g></g><g><use xlink:href="#n3TPHkGEO" opacity="1" fill="#000000" fill-opacity="0"></use><g><use xlink:href="#n3TPHkGEO" opacity="1" fill-opacity="0" stroke="#000000" stroke-width="1" stroke-opacity="0"></use></g></g><g><use xlink:href="#apwfM4ger" opacity="1" fill="#aa570f" fill-opacity="1"></use><g><use xlink:href="#apwfM4ger" opacity="1" fill-opacity="0" stroke="#000000" stroke-width="1" stroke-opacity="0"></use></g></g><g><use xlink:href="#a1pFchns9k" opacity="1" fill="#000000" fill-opacity="0"></use><g><use xlink:href="#a1pFchns9k" opacity="1" fill-opacity="0" stroke="#000000" stroke-width="1" stroke-opacity="0"></use></g></g><g><use xlink:href="#c1xpnq6iCb" opacity="1" fill="#bdbb1d" fill-opacity="1"></use><g><use xlink:href="#c1xpnq6iCb" opacity="1" fill-opacity="0" stroke="#000000" stroke-width="1" stroke-opacity="0"></use></g></g><g><use xlink:href="#d2e3kvTqfl" opacity="1" fill="#000000" fill-opacity="0"></use><g><use xlink:href="#d2e3kvTqfl" opacity="1" fill-opacity="0" stroke="#000000" stroke-width="1" stroke-opacity="0"></use></g></g><g><use xlink:href="#a18m04E0f8" opacity="1" fill="#ab4f0e" fill-opacity="1"></use><g><use xlink:href="#a18m04E0f8" opacity="1" fill-opacity="0" stroke="#000000" stroke-width="1" stroke-opacity="0"></use></g></g><g><use xlink:href="#a2FV5CvKkv" opacity="1" fill="#000000" fill-opacity="0"></use><g><use xlink:href="#a2FV5CvKkv" opacity="1" fill-opacity="0" stroke="#000000" stroke-width="1" stroke-opacity="0"></use></g></g><g><use xlink:href="#h4sd8n7MS" opacity="1" fill="#b5b61b" fill-opacity="1"></use><g><use xlink:href="#h4sd8n7MS" opacity="1" fill-opacity="0" stroke="#000000" stroke-width="1" stroke-opacity="0"></use></g></g><g><use xlink:href="#a6d0dVHLjm" opacity="1" fill="#000000" fill-opacity="0"></use><g><use xlink:href="#a6d0dVHLjm" opacity="1" fill-opacity="0" stroke="#000000" stroke-width="1" stroke-opacity="0"></use></g></g><g><use xlink:href="#cUXyItLOd" opacity="1" fill="#ab460e" fill-opacity="1"></use><g><use xlink:href="#cUXyItLOd" opacity="1" fill-opacity="0" stroke="#000000" stroke-width="1" stroke-opacity="0"></use></g></g><g><use xlink:href="#a8KLn58fi" opacity="1" fill="#000000" fill-opacity="0"></use><g><use xlink:href="#a8KLn58fi" opacity="1" fill-opacity="0" stroke="#000000" stroke-width="1" stroke-opacity="0"></use></g></g><g><use xlink:href="#a63Fw1HmPG" opacity="1" fill="#acb019" fill-opacity="1"></use><g><use xlink:href="#a63Fw1HmPG" opacity="1" fill-opacity="0" stroke="#000000" stroke-width="1" stroke-opacity="0"></use></g></g><g><use xlink:href="#a37K6eQ4Z" opacity="1" fill="#000000" fill-opacity="0"></use><g><use xlink:href="#a37K6eQ4Z" opacity="1" fill-opacity="0" stroke="#000000" stroke-width="1" stroke-opacity="0"></use></g></g><g><use xlink:href="#c8xlHvbKAo" opacity="1" fill="#ac3b0d" fill-opacity="1"></use><g><use xlink:href="#c8xlHvbKAo" opacity="1" fill-opacity="0" stroke="#000000" stroke-width="1" stroke-opacity="0"></use></g></g><g><use xlink:href="#b1ezxdogdA" opacity="1" fill="#000000" fill-opacity="0"></use><g><use xlink:href="#b1ezxdogdA" opacity="1" fill-opacity="0" stroke="#000000" stroke-width="1" stroke-opacity="0"></use></g></g><g><use xlink:href="#e1r7eTAmEL" opacity="1" fill="#a3aa17" fill-opacity="1"></use><g><use xlink:href="#e1r7eTAmEL" opacity="1" fill-opacity="0" stroke="#000000" stroke-width="1" stroke-opacity="0"></use></g></g><g><use xlink:href="#d3e8Jqz57" opacity="1" fill="#000000" fill-opacity="0"></use><g><use xlink:href="#d3e8Jqz57" opacity="1" fill-opacity="0" stroke="#000000" stroke-width="1" stroke-opacity="0"></use></g></g><g><use xlink:href="#bbdzIifcr" opacity="1" fill="#ac2e0d" fill-opacity="1"></use><g><use xlink:href="#bbdzIifcr" opacity="1" fill-opacity="0" stroke="#000000" stroke-width="1" stroke-opacity="0"></use></g></g><g><use xlink:href="#fJquwm5o4" opacity="1" fill="#000000" fill-opacity="0"></use><g><use xlink:href="#fJquwm5o4" opacity="1" fill-opacity="0" stroke="#000000" stroke-width="1" stroke-opacity="0"></use></g></g></g></svg>